# xmcd
#
# Track frame offsets:
#	150
#	9352
#	20072
#	32205
#	42670
#	56837
#	67740
#	79352
#	93622
#	103070
#	115675
#	127600
#	142382
#	153212
#	164470
#	176285
#	191840
#	202917
#	215270
#	226800
#	241332
#	255737
#	263875
#	276350
#	287465
#	298347
#	312005
#	324790
#	334837
#	344677
#
# Disc length: 4775 seconds
#
# Revision: 1
# Processed by: cddbd v1.5.1PL0 Copyright (c) Steve Scherf et al.
# Submitted via: CDex 1.50Beta5
#
DISCID=bb12a51e
DTITLE=さまざまなアーティスト - DISCO FEVER ULTRA NON STOP
DYEAR=1900
DGENRE=Pop
TTITLE0=ママ・ユースト・トゥ・セイ
TTITLE1=サムバディ・エルスズ・ガイ
TTITLE2=イット・マスト・ビー・ラヴ
TTITLE3=ブレイクアウト
TTITLE4=ジョアンナ
TTITLE5=リッチ・アップ
TTITLE6=レイディ
TTITLE7=バッド・ガール
TTITLE8=ノック・ミー・アウト
TTITLE9=ワン・フォー・ミー
TTITLE10=ジャンプ・イントゥ・マイ・ライフ
TTITLE11=ギルティー
TTITLE12=さまざまなアーティスト/江印と・なっしん・ゴーイン・オン・バット・ザ・レント
TTITLE13=キャンディ
TTITLE14=ウォーキング・イントゥ・サンシャイン
TTITLE15=アップサイド・ダウン
TTITLE16=バット・ママ・ジャマ
TTITLE17=ユール・ネバァ・ノウ
TTITLE18=カルフォルニア1
TTITLE19=ダンシン・ザ・ナイト・アウェイ
TTITLE20=ファンキータウン
TTITLE21=レッツ・ゲット・シリアス
TTITLE22=セイ・イット,セイ・イット
TTITLE23=キャンドルライト・アフターネーン
TTITLE24=ユー・キャント・ハイド
TTITLE25=ミラクルズ
TTITLE26=プリズナー・オブ・ラヴ
TTITLE27=ノー・フリルズ・ラヴ
TTITLE28=レット・イット・ホイップ
TTITLE29=さよならは言わないで
EXTD=
EXTT0=
EXTT1=
EXTT2=
EXTT3=
EXTT4=
EXTT5=
EXTT6=
EXTT7=
EXTT8=
EXTT9=
EXTT10=
EXTT11=
EXTT12=
EXTT13=
EXTT14=
EXTT15=
EXTT16=
EXTT17=
EXTT18=
EXTT19=
EXTT20=
EXTT21=
EXTT22=
EXTT23=
EXTT24=
EXTT25=
EXTT26=
EXTT27=
EXTT28=
EXTT29=
PLAYORDER=
